<?xml version="1.0" encoding="utf-8"?>
<!-- Generator: Adobe Illustrator 19.1.0, SVG Export Plug-In . SVG Version: 6.00 Build 0)  -->
<!DOCTYPE svg PUBLIC "-//W3C//DTD SVG 1.1//EN" "http://www.w3.org/Graphics/SVG/1.1/DTD/svg11.dtd">
<svg version="1.1" id="curve" xmlns="http://www.w3.org/2000/svg" xmlns:xlink="http://www.w3.org/1999/xlink" x="0px" y="0px"
	 viewBox="0 0 1344.7 1343.4" style="enable-background:new 0 0 1344.7 1343.4;" xml:space="preserve">
<style type="text/css">
	.st0{fill:#ED1C24;}
</style>
<path class="st0" d="M1261.6,671.8c-0.1,325.1-263.7,588.6-588.8,588.6c-0.3,0-0.6,0-0.9,0v84.1c371.6,0,672.8-301.2,672.8-672.8
	H1261.6z"/>
<path class="st0" d="M672.8,82.9c325.2,0,588.8,263.6,588.8,588.8c0,0.1,0,0.1,0,0.2h83.1c0-371.6-301.2-672.8-672.8-672.8v83.8
	C672.2,82.9,672.5,82.9,672.8,82.9z"/>
<path class="st0" d="M84,671.7C84,346.5,347.6,82.9,672.8,82.9V-0.9C301.2-0.9,0,300.3,0,671.8h84C84,671.8,84,671.7,84,671.7z"/>
<path class="st0" d="M84,671.8H0c0,371.6,301.2,672.8,672.8,672.8v-84.1C347.7,1260.5,84.1,997,84,671.8z"/>
</svg>
